# xmcd
#
# Track frame offsets:
#	182
#	13957
#	31145
#	49292
#	64092
#	77340
#	98502
#	112515
#	126795
#	144407
#
# Disc length: 2150 seconds
#
# Revision: 2
# Processed by: cddbd v1.4PL0 Copyright (c) Steve Scherf et al.
# Submitted via: dBpowerAMP V4.0
#
DISCID=7208640a
DTITLE=James (Elvis) Ellis - Orion - Steady as she goes
DYEAR=1996
DGENRE=Rock n' Roll
TTITLE0=Steady As She Goes
TTITLE1=He Has His Hands On Your Heart
TTITLE2=Love Is The Only Way Out
TTITLE3=Between Hello And Goodbye
TTITLE4=Rock Your Baby
TTITLE5=I Know Where You Are Coming From
TTITLE6=My Boogie Wants To Woogie With You
TTITLE7=The Power Of Your Love
TTITLE8=If You Ever Want A Fool Around
TTITLE9=Starting Over
EXTD=
EXTT0=
EXTT1=
EXTT2=
EXTT3=
EXTT4=
EXTT5=
EXTT6=
EXTT7=
EXTT8=
EXTT9=
PLAYORDER=
